<?xml version="1.0" encoding="utf-8"?>
<svg viewBox="313 78.9000015258789 101.00003051757812 140" width="101.00003051757812" height="140" xmlns="http://www.w3.org/2000/svg"><g transform="matrix(0.9999999999999999, 0, 0, 0.9999999999999999, 0, 0)">
		<path class="st1" d="M411,78.9c0,0-29.2,0.8-47.5,0.8c-18.3,0-47.5-0.8-47.5-0.8c-1.7,0-3,1.3-3,3v132.9c0,1.7,1.4,3.1,3,3.1&#10;&#9;&#9;&#9;c0,0,29.2,1,47.5,1c18.3,0,47.5-1,47.5-1c1.7-0.1,3-1.5,3-3.1V81.9C414,80.2,412.7,78.9,411,78.9z" style="fill: rgb(255, 255, 255);"/>
		<path d="M 363.5 132.6999969482422 L 353.5 148.1999969482422 L 363.5 163.8000030517578 L 373.5 148.1999969482422 Z" class="st2" style="fill: rgb(196, 22, 28);"/>
		<path d="M 323.20001220703125 95.80000305175781 L 319 102.5 L 323.20001220703125 109.19999694824219 L 327.5 102.5 Z" class="st2" style="fill: rgb(196, 22, 28);"/>
		<g>
			<path class="st2" d="M322.5,87.3l2.2-3h-2.2c-0.6,0-0.9,0.2-0.9,0.6c0,0.1,0,0.3,0,0.5c0,0.2,0,0.3,0,0.4c0,0.5-0.2,0.7-0.5,0.7&#10;&#9;&#9;&#9;&#9;c-0.3,0-0.5-0.2-0.5-0.6c0-0.1,0-0.3,0-0.7c0-0.3,0-0.5,0-0.7l-0.1-0.8c0-0.4,0.1-0.6,0.4-0.6c0.1,0,0.3,0,0.6,0&#10;&#9;&#9;&#9;&#9;c0.3,0,0.5,0,0.6,0h1h1.3l1-0.1c0,0,0,0,0.1,0c0.4,0,0.6,0.2,0.6,0.5c0,0.2-0.1,0.4-0.3,0.7l-2,2.5h0.2c0.7,0,1.2,0.3,1.6,0.8&#10;&#9;&#9;&#9;&#9;c0.4,0.5,0.6,1.2,0.6,2c0,1-0.3,1.9-0.8,2.5c-0.6,0.6-1.3,1-2.2,1c-0.8,0-1.5-0.3-2.1-0.8c-0.6-0.5-0.8-1.2-0.8-1.9&#10;&#9;&#9;&#9;&#9;c0-0.5,0.1-0.9,0.3-1.2c0.2-0.3,0.5-0.5,0.8-0.5c0.5,0,0.8,0.3,0.8,0.8c0,0.5-0.2,0.7-0.6,0.7c0,0-0.1,0-0.2,0v0.2&#10;&#9;&#9;&#9;&#9;c0,0.4,0.2,0.8,0.5,1.1c0.4,0.3,0.8,0.5,1.3,0.5c0.6,0,1.1-0.2,1.4-0.7c0.4-0.5,0.6-1,0.6-1.7c0-0.5-0.1-1-0.4-1.3&#10;&#9;&#9;&#9;&#9;c-0.3-0.3-0.7-0.5-1.1-0.5c-0.2,0-0.3,0-0.5,0.1c-0.3,0.1-0.4,0.1-0.5,0.1c-0.3,0-0.4-0.1-0.4-0.4&#10;&#9;&#9;&#9;&#9;C322.3,87.6,322.4,87.4,322.5,87.3z" style="fill: rgb(196, 22, 28);"/>
		</g>
		<path d="M 403.6000061035156 201 L 407.8999938964844 194.3000030517578 L 403.6000061035156 187.60000610351562 L 399.29998779296875 194.3000030517578 Z" class="st2" style="fill: rgb(196, 22, 28);"/>
		<g>
			<path class="st2" d="M404.3,209.6l-2.2,3h2.2c0.6,0,0.9-0.2,0.9-0.6c0-0.1,0-0.3,0-0.5c0-0.2,0-0.3,0-0.4c0-0.5,0.2-0.7,0.5-0.7&#10;&#9;&#9;&#9;&#9;c0.3,0,0.5,0.2,0.5,0.6c0,0.1,0,0.3,0,0.7c0,0.3,0,0.5,0,0.7l0.1,0.8c0,0.4-0.1,0.6-0.4,0.6c-0.1,0-0.3,0-0.6,0&#10;&#9;&#9;&#9;&#9;c-0.3,0-0.5,0-0.6,0h-1h-1.3l-1,0.1c0,0,0,0-0.1,0c-0.4,0-0.6-0.2-0.6-0.5c0-0.2,0.1-0.4,0.3-0.7l2-2.5h-0.2&#10;&#9;&#9;&#9;&#9;c-0.7,0-1.2-0.3-1.6-0.8c-0.4-0.5-0.6-1.2-0.6-2c0-1,0.3-1.9,0.8-2.5c0.6-0.6,1.3-1,2.2-1c0.8,0,1.5,0.3,2.1,0.8&#10;&#9;&#9;&#9;&#9;c0.6,0.5,0.8,1.2,0.8,1.9c0,0.5-0.1,0.9-0.3,1.2c-0.2,0.3-0.5,0.5-0.8,0.5c-0.5,0-0.8-0.3-0.8-0.8c0-0.5,0.2-0.7,0.6-0.7&#10;&#9;&#9;&#9;&#9;c0,0,0.1,0,0.2,0v-0.2c0-0.4-0.2-0.8-0.5-1.1c-0.4-0.3-0.8-0.5-1.3-0.5c-0.6,0-1.1,0.2-1.4,0.7c-0.4,0.5-0.6,1-0.6,1.7&#10;&#9;&#9;&#9;&#9;c0,0.5,0.1,1,0.4,1.3c0.3,0.3,0.7,0.5,1.1,0.5c0.2,0,0.3,0,0.5-0.1c0.3-0.1,0.4-0.1,0.5-0.1c0.3,0,0.4,0.1,0.4,0.4&#10;&#9;&#9;&#9;&#9;C404.5,209.3,404.4,209.4,404.3,209.6z" style="fill: rgb(196, 22, 28);"/>
		</g>
		<path d="M 363.5 92.69999694824219 L 353.5 108.19999694824219 L 363.5 123.80000305175781 L 373.5 108.19999694824219 Z" class="st2" style="fill: rgb(196, 22, 28);"/>
		<path d="M 363.5 172.6999969482422 L 353.5 188.1999969482422 L 363.5 203.8000030517578 L 373.5 188.1999969482422 Z" class="st2" style="fill: rgb(196, 22, 28);"/>
	</g></svg>