<?xml version="1.0" encoding="utf-8"?>
<svg viewBox="447.5999450683594 78.9000015258789 101.00003051757812 140" width="101.00003051757812" height="140" xmlns="http://www.w3.org/2000/svg"><g transform="matrix(0.9999999999999999, 0, 0, 0.9999999999999999, 0, 0)">
		<path class="st1" d="M545.6,78.9c0,0-29.2,0.8-47.5,0.8c-18.3,0-47.5-0.8-47.5-0.8c-1.7,0-3,1.3-3,3v132.9c0,1.7,1.4,3.1,3,3.1&#10;&#9;&#9;&#9;c0,0,29.2,1,47.5,1c18.3,0,47.5-1,47.5-1c1.7-0.1,3-1.5,3-3.1V81.9C548.6,80.2,547.3,78.9,545.6,78.9z" style="fill: rgb(255, 255, 255);"/>
		<path d="M 457.79998779296875 95.80000305175781 L 453.5 102.5 L 457.79998779296875 109.19999694824219 L 462.1000061035156 102.5 Z" class="st2" style="fill: rgb(196, 22, 28);"/>
		<g>
			<path class="st2" d="M458.5,90.4v-0.3h-3c-0.5,0-0.8-0.2-0.8-0.6c0-0.2,0.1-0.5,0.3-0.9l3-5.1c0.2-0.3,0.4-0.4,0.7-0.4&#10;&#9;&#9;&#9;&#9;c0.3,0,0.5,0.1,0.6,0.2c0.1,0.2,0.2,0.5,0.2,0.9V89h1c0.4,0,0.5,0.2,0.5,0.5c0,0.4-0.2,0.5-0.7,0.5h-0.8v0.3v0.8&#10;&#9;&#9;&#9;&#9;c0,0.5,0.2,0.8,0.5,0.8c0.1,0,0.1,0,0.3,0c0.1,0,0.2,0,0.3,0c0.3,0,0.5,0.2,0.5,0.5c0,0.1-0.1,0.3-0.2,0.4&#10;&#9;&#9;&#9;&#9;c-0.1,0.1-0.2,0.2-0.4,0.2c-0.1,0-0.4,0-0.7-0.1c-0.3-0.1-0.5-0.1-0.7-0.1c-0.2,0-0.5,0-0.8,0.1c-0.4,0.1-0.6,0.1-0.8,0.1&#10;&#9;&#9;&#9;&#9;c-0.3,0-0.5-0.2-0.5-0.5c0-0.3,0.2-0.5,0.5-0.5c0,0,0.1,0,0.3,0c0.1,0,0.2,0,0.3,0c0.3,0,0.4-0.2,0.5-0.7&#10;&#9;&#9;&#9;&#9;C458.5,91.3,458.5,91,458.5,90.4z M455.8,89h2.7v-4.5L455.8,89z" style="fill: rgb(196, 22, 28);"/>
		</g>
		<path d="M 538.2000122070312 201 L 542.5 194.3000030517578 L 538.2000122070312 187.60000610351562 L 533.9000244140625 194.3000030517578 Z" class="st2" style="fill: rgb(196, 22, 28);"/>
		<g>
			<path class="st2" d="M537.5,206.4v0.3h3c0.5,0,0.8,0.2,0.8,0.6c0,0.2-0.1,0.5-0.3,0.9l-3,5.1c-0.2,0.3-0.4,0.4-0.7,0.4&#10;&#9;&#9;&#9;&#9;c-0.3,0-0.5-0.1-0.6-0.2c-0.1-0.2-0.2-0.5-0.2-0.9v-4.8h-1c-0.4,0-0.5-0.2-0.5-0.5c0-0.4,0.2-0.5,0.7-0.5h0.8v-0.3v-0.8&#10;&#9;&#9;&#9;&#9;c0-0.5-0.2-0.8-0.5-0.8c-0.1,0-0.1,0-0.3,0c-0.1,0-0.2,0-0.3,0c-0.3,0-0.5-0.2-0.5-0.5c0-0.1,0.1-0.3,0.2-0.4&#10;&#9;&#9;&#9;&#9;c0.1-0.1,0.2-0.2,0.4-0.2c0.1,0,0.4,0,0.7,0.1c0.3,0.1,0.5,0.1,0.7,0.1c0.2,0,0.5,0,0.8-0.1c0.4-0.1,0.6-0.1,0.8-0.1&#10;&#9;&#9;&#9;&#9;c0.3,0,0.5,0.2,0.5,0.5c0,0.3-0.2,0.5-0.5,0.5c0,0-0.1,0-0.3,0c-0.1,0-0.2,0-0.3,0c-0.3,0-0.4,0.2-0.5,0.7&#10;&#9;&#9;&#9;&#9;C537.5,205.5,537.5,205.9,537.5,206.4z M540.2,207.8h-2.7v4.5L540.2,207.8z" style="fill: rgb(196, 22, 28);"/>
		</g>
		<path d="M 478.1000061035156 92.69999694824219 L 468.1000061035156 108.19999694824219 L 478.1000061035156 123.80000305175781 L 488.1000061035156 108.19999694824219 Z" class="st2" style="fill: rgb(196, 22, 28);"/>
		<path d="M 478.1000061035156 172.6999969482422 L 468.1000061035156 188.1999969482422 L 478.1000061035156 203.8000030517578 L 488.1000061035156 188.1999969482422 Z" class="st2" style="fill: rgb(196, 22, 28);"/>
		<path d="M 518.0999755859375 92.69999694824219 L 508.1000061035156 108.19999694824219 L 518.0999755859375 123.80000305175781 L 528.0999755859375 108.19999694824219 Z" class="st2" style="fill: rgb(196, 22, 28);"/>
		<path d="M 518.0999755859375 172.6999969482422 L 508.1000061035156 188.1999969482422 L 518.0999755859375 203.8000030517578 L 528.0999755859375 188.1999969482422 Z" class="st2" style="fill: rgb(196, 22, 28);"/>
	</g></svg>