<?xml version="1.0" encoding="utf-8"?>
<svg viewBox="582.199951171875 78.9000015258789 101.00006103515625 140" width="101.00006103515625" height="140" xmlns="http://www.w3.org/2000/svg"><g transform="matrix(0.9999999999999999, 0, 0, 0.9999999999999999, 0, 0)">
		<path class="st1" d="M680.2,78.9c0,0-29.2,0.8-47.5,0.8c-18.3,0-47.5-0.8-47.5-0.8c-1.7,0-3,1.3-3,3v132.9c0,1.7,1.4,3.1,3,3.1&#10;&#9;&#9;&#9;c0,0,29.2,1,47.5,1c18.3,0,47.5-1,47.5-1c1.7-0.1,3-1.5,3-3.1V81.9C683.2,80.2,681.9,78.9,680.2,78.9z" style="fill: rgb(255, 255, 255);"/>
		<path d="M 592.4000244140625 95.80000305175781 L 588.0999755859375 102.5 L 592.4000244140625 109.19999694824219 L 596.7000122070312 102.5 Z" class="st2" style="fill: rgb(196, 22, 28);"/>
		<g>
			<path class="st2" d="M591.1,84.8l-0.2,2.3c0.6-0.5,1.2-0.8,1.9-0.8c0.8,0,1.4,0.3,1.9,0.9c0.5,0.6,0.7,1.4,0.7,2.3&#10;&#9;&#9;&#9;&#9;c0,1-0.3,1.9-0.8,2.6c-0.6,0.7-1.3,1-2.2,1c-0.8,0-1.4-0.2-2-0.7c-0.5-0.5-0.8-1.1-0.8-1.7c0-0.4,0.1-0.7,0.2-1&#10;&#9;&#9;&#9;&#9;c0.2-0.2,0.4-0.4,0.6-0.4c0.2,0,0.4,0.1,0.5,0.2c0.1,0.2,0.2,0.3,0.2,0.6c0,0.4-0.2,0.7-0.6,0.7c0.3,0.9,0.8,1.3,1.7,1.3&#10;&#9;&#9;&#9;&#9;c0.6,0,1.1-0.2,1.4-0.7c0.4-0.5,0.6-1.1,0.6-1.8c0-0.7-0.2-1.2-0.5-1.6c-0.3-0.4-0.8-0.6-1.3-0.6c-0.7,0-1.2,0.3-1.6,0.9&#10;&#9;&#9;&#9;&#9;c-0.1,0.2-0.2,0.3-0.3,0.3c-0.1,0-0.2,0.1-0.3,0.1c-0.3,0-0.5-0.2-0.5-0.6c0-0.2,0-0.4,0.1-0.7c0-0.4,0.1-0.6,0.1-0.7&#10;&#9;&#9;&#9;&#9;c0-0.2,0-0.6,0.1-1c0-0.7,0.1-1.2,0.1-1.7v-0.3c0-0.2,0-0.3,0-0.3c0-0.1,0.1-0.1,0.2-0.1c0.1,0,0.1,0,0.2,0&#10;&#9;&#9;&#9;&#9;c0.8,0.1,1.3,0.1,1.6,0.1l0.1,0h1.1c0.1,0,0.3,0,0.5,0c0.2,0,0.4,0,0.5,0c0.1,0,0.2,0,0.2,0.1c0,0,0.1,0.1,0.1,0.3&#10;&#9;&#9;&#9;&#9;c0,0.1,0,0.2,0,0.3v0.3c0,0.2,0,0.4,0.1,0.7c0,0.3,0.1,0.5,0.1,0.7c0,0.3-0.1,0.4-0.4,0.4c-0.3,0-0.4-0.1-0.4-0.4l0-0.5&#10;&#9;&#9;&#9;&#9;c0-0.3-0.1-0.4-0.2-0.5c-0.1-0.1-0.4-0.1-0.8-0.1h-1.4c-0.2,0-0.3,0-0.4,0.1C591.1,84.4,591.1,84.6,591.1,84.8z" style="fill: rgb(196, 22, 28);"/>
		</g>
		<path d="M 672.7999877929688 201 L 677.0999755859375 194.3000030517578 L 672.7999877929688 187.60000610351562 L 668.5 194.3000030517578 Z" class="st2" style="fill: rgb(196, 22, 28);"/>
		<g>
			<path class="st2" d="M674.1,212l0.2-2.3c-0.6,0.5-1.2,0.8-1.9,0.8c-0.8,0-1.4-0.3-1.9-0.9c-0.5-0.6-0.7-1.4-0.7-2.3&#10;&#9;&#9;&#9;&#9;c0-1,0.3-1.9,0.8-2.6c0.6-0.7,1.3-1,2.2-1c0.8,0,1.4,0.2,2,0.7c0.5,0.5,0.8,1.1,0.8,1.7c0,0.4-0.1,0.7-0.2,1&#10;&#9;&#9;&#9;&#9;c-0.2,0.2-0.4,0.4-0.6,0.4c-0.2,0-0.4-0.1-0.5-0.2c-0.1-0.2-0.2-0.3-0.2-0.6c0-0.4,0.2-0.7,0.6-0.7c-0.3-0.9-0.8-1.3-1.7-1.3&#10;&#9;&#9;&#9;&#9;c-0.6,0-1.1,0.2-1.4,0.7c-0.4,0.5-0.6,1.1-0.6,1.8c0,0.7,0.2,1.2,0.5,1.6c0.3,0.4,0.8,0.6,1.3,0.6c0.7,0,1.2-0.3,1.6-0.9&#10;&#9;&#9;&#9;&#9;c0.1-0.2,0.2-0.3,0.3-0.3c0.1,0,0.2-0.1,0.3-0.1c0.3,0,0.5,0.2,0.5,0.6c0,0.2,0,0.4-0.1,0.7c0,0.4-0.1,0.6-0.1,0.7&#10;&#9;&#9;&#9;&#9;c0,0.2,0,0.6-0.1,1c0,0.7-0.1,1.2-0.1,1.7v0.3c0,0.2,0,0.3,0,0.3c0,0.1-0.1,0.1-0.2,0.1c-0.1,0-0.1,0-0.2,0&#10;&#9;&#9;&#9;&#9;c-0.8-0.1-1.3-0.1-1.6-0.1l-0.1,0h-1.1c-0.1,0-0.3,0-0.5,0c-0.2,0-0.4,0-0.5,0c-0.1,0-0.2,0-0.2-0.1c0,0-0.1-0.1-0.1-0.3&#10;&#9;&#9;&#9;&#9;c0-0.1,0-0.2,0-0.3v-0.3c0-0.2,0-0.4-0.1-0.7c0-0.3-0.1-0.5-0.1-0.7c0-0.3,0.1-0.4,0.4-0.4c0.3,0,0.4,0.1,0.4,0.4l0,0.5&#10;&#9;&#9;&#9;&#9;c0,0.3,0.1,0.4,0.2,0.5c0.1,0.1,0.4,0.1,0.8,0.1h1.4c0.2,0,0.3,0,0.4-0.1C674.1,212.4,674.1,212.3,674.1,212z" style="fill: rgb(196, 22, 28);"/>
		</g>
		<path d="M 632.7000122070312 132.6999969482422 L 622.7000122070312 148.1999969482422 L 632.7000122070312 163.8000030517578 L 642.7000122070312 148.1999969482422 Z" class="st2" style="fill: rgb(196, 22, 28);"/>
		<path d="M 612.7000122070312 92.69999694824219 L 602.7000122070312 108.19999694824219 L 612.7000122070312 123.80000305175781 L 622.7000122070312 108.19999694824219 Z" class="st2" style="fill: rgb(196, 22, 28);"/>
		<path d="M 612.7000122070312 172.6999969482422 L 602.7000122070312 188.1999969482422 L 612.7000122070312 203.8000030517578 L 622.7000122070312 188.1999969482422 Z" class="st2" style="fill: rgb(196, 22, 28);"/>
		<path d="M 652.7000122070312 92.69999694824219 L 642.7000122070312 108.19999694824219 L 652.7000122070312 123.80000305175781 L 662.7000122070312 108.19999694824219 Z" class="st2" style="fill: rgb(196, 22, 28);"/>
		<path d="M 652.7000122070312 172.6999969482422 L 642.7000122070312 188.1999969482422 L 652.7000122070312 203.8000030517578 L 662.7000122070312 188.1999969482422 Z" class="st2" style="fill: rgb(196, 22, 28);"/>
	</g></svg>