<?xml version="1.0" encoding="utf-8"?>
<svg viewBox="716.7999877929688 78.9000015258789 101.0001220703125 140" width="101.0001220703125" height="140" xmlns="http://www.w3.org/2000/svg"><g transform="matrix(0.9999999999999999, 0, 0, 0.9999999999999999, 0, 0)">
		<path class="st1" d="M814.8,78.9c0,0-29.2,0.8-47.5,0.8c-18.3,0-47.5-0.8-47.5-0.8c-1.7,0-3,1.3-3,3v132.9c0,1.7,1.4,3.1,3,3.1&#10;&#9;&#9;&#9;c0,0,29.2,1,47.5,1c18.3,0,47.5-1,47.5-1c1.7-0.1,3-1.5,3-3.1V81.9C817.8,80.2,816.5,78.9,814.8,78.9z" style="fill: rgb(255, 255, 255);"/>
		<path d="M 727 95.80000305175781 L 722.7000122070312 102.5 L 727 109.19999694824219 L 731.2999877929688 102.5 Z" class="st2" style="fill: rgb(196, 22, 28);"/>
		<g>
			<path class="st2" d="M727.4,84c-0.6,0-1.2,0.3-1.5,1c-0.4,0.7-0.6,1.6-0.7,2.7c0.4-0.5,0.7-0.8,1.1-1c0.3-0.2,0.7-0.3,1.2-0.3&#10;&#9;&#9;&#9;&#9;c0.8,0,1.4,0.3,1.9,0.9c0.5,0.6,0.7,1.4,0.7,2.3c0,1-0.3,1.8-0.8,2.5c-0.5,0.6-1.2,1-2.1,1c-0.5,0-1-0.1-1.4-0.4&#10;&#9;&#9;&#9;&#9;c-0.4-0.3-0.8-0.7-1-1.2c-0.4-0.9-0.6-2.1-0.6-3.4c0-1.5,0.3-2.7,0.9-3.7c0.6-0.9,1.4-1.4,2.4-1.4c0.6,0,1.1,0.2,1.6,0.6&#10;&#9;&#9;&#9;&#9;c0.4,0.4,0.6,0.9,0.6,1.5c0,0.6-0.2,1-0.7,1c-0.2,0-0.4-0.1-0.5-0.2c-0.1-0.1-0.2-0.3-0.2-0.5c0-0.2,0.1-0.5,0.3-0.6&#10;&#9;&#9;&#9;&#9;C728.3,84.2,727.9,84,727.4,84z M727.2,87.5c-0.5,0-1,0.2-1.3,0.6c-0.3,0.4-0.5,0.9-0.5,1.5c0,0.7,0.2,1.3,0.5,1.7&#10;&#9;&#9;&#9;&#9;c0.3,0.5,0.8,0.7,1.3,0.7s0.9-0.2,1.3-0.7c0.3-0.4,0.5-1,0.5-1.7c0-0.7-0.2-1.2-0.5-1.6C728.2,87.7,727.8,87.5,727.2,87.5z" style="fill: rgb(196, 22, 28);"/>
		</g>
		<path d="M 807.4000244140625 201 L 811.5999755859375 194.3000030517578 L 807.4000244140625 187.60000610351562 L 803.0999755859375 194.3000030517578 Z" class="st2" style="fill: rgb(196, 22, 28);"/>
		<g>
			<path class="st2" d="M807,212.8c0.6,0,1.2-0.3,1.5-1c0.4-0.7,0.6-1.6,0.7-2.7c-0.4,0.5-0.7,0.8-1.1,1c-0.3,0.2-0.7,0.3-1.2,0.3&#10;&#9;&#9;&#9;&#9;c-0.8,0-1.4-0.3-1.9-0.9c-0.5-0.6-0.7-1.4-0.7-2.3c0-1,0.3-1.8,0.8-2.5c0.5-0.6,1.2-1,2.1-1c0.5,0,1,0.1,1.4,0.4&#10;&#9;&#9;&#9;&#9;c0.4,0.3,0.8,0.7,1,1.2c0.4,0.9,0.6,2.1,0.6,3.4c0,1.5-0.3,2.7-0.9,3.7c-0.6,0.9-1.4,1.4-2.4,1.4c-0.6,0-1.1-0.2-1.6-0.6&#10;&#9;&#9;&#9;&#9;c-0.4-0.4-0.6-0.9-0.6-1.5c0-0.6,0.2-1,0.7-1c0.2,0,0.4,0.1,0.5,0.2c0.1,0.1,0.2,0.3,0.2,0.5c0,0.2-0.1,0.5-0.3,0.6&#10;&#9;&#9;&#9;&#9;C806.1,212.6,806.5,212.8,807,212.8z M807.2,209.4c0.5,0,1-0.2,1.3-0.6c0.3-0.4,0.5-0.9,0.5-1.5c0-0.7-0.2-1.3-0.5-1.7&#10;&#9;&#9;&#9;&#9;c-0.3-0.5-0.8-0.7-1.3-0.7s-0.9,0.2-1.3,0.7c-0.3,0.4-0.5,1-0.5,1.7c0,0.7,0.2,1.2,0.5,1.6C806.2,209.2,806.6,209.4,807.2,209.4z&#10;&#9;&#9;&#9;&#9;" style="fill: rgb(196, 22, 28);"/>
		</g>
		<path d="M 747.2000122070312 132.6999969482422 L 737.2000122070312 148.1999969482422 L 747.2000122070312 163.8000030517578 L 757.2000122070312 148.1999969482422 Z" class="st2" style="fill: rgb(196, 22, 28);"/>
		<path d="M 747.2000122070312 92.69999694824219 L 737.2000122070312 108.19999694824219 L 747.2000122070312 123.80000305175781 L 757.2000122070312 108.19999694824219 Z" class="st2" style="fill: rgb(196, 22, 28);"/>
		<path d="M 747.2000122070312 172.6999969482422 L 737.2000122070312 188.1999969482422 L 747.2000122070312 203.8000030517578 L 757.2000122070312 188.1999969482422 Z" class="st2" style="fill: rgb(196, 22, 28);"/>
		<path d="M 787.2000122070312 132.6999969482422 L 777.2000122070312 148.1999969482422 L 787.2000122070312 163.8000030517578 L 797.2000122070312 148.1999969482422 Z" class="st2" style="fill: rgb(196, 22, 28);"/>
		<path d="M 787.2000122070312 92.69999694824219 L 777.2000122070312 108.19999694824219 L 787.2000122070312 123.80000305175781 L 797.2000122070312 108.19999694824219 Z" class="st2" style="fill: rgb(196, 22, 28);"/>
		<path d="M 787.2000122070312 172.6999969482422 L 777.2000122070312 188.1999969482422 L 787.2000122070312 203.8000030517578 L 797.2000122070312 188.1999969482422 Z" class="st2" style="fill: rgb(196, 22, 28);"/>
	</g></svg>