<?xml version="1.0" encoding="utf-8"?>
<svg viewBox="851.4000244140625 78.9000015258789 101.00006103515625 140" width="101.00006103515625" height="140" xmlns="http://www.w3.org/2000/svg"><g transform="matrix(0.9999999999999999, 0, 0, 0.9999999999999999, 0, 0)">
		<path class="st1" d="M949.4,78.9c0,0-29.2,0.8-47.5,0.8c-18.3,0-47.5-0.8-47.5-0.8c-1.7,0-3,1.3-3,3v132.9c0,1.7,1.4,3.1,3,3.1&#10;&#9;&#9;&#9;c0,0,29.2,1,47.5,1c18.3,0,47.5-1,47.5-1c1.7-0.1,3-1.5,3-3.1V81.9C952.4,80.2,951.1,78.9,949.4,78.9z" style="fill: rgb(255, 255, 255);"/>
		<path d="M 861.5999755859375 95.80000305175781 L 857.2999877929688 102.5 L 861.5999755859375 109.19999694824219 L 865.9000244140625 102.5 Z" class="st2" style="fill: rgb(196, 22, 28);"/>
		<g>
			<path class="st2" d="M859.9,83.6c0,0,0,0.1,0,0.1c0,0.1,0,0.2,0,0.2c0.2-0.3,0.4-0.5,0.5-0.7c0.2-0.1,0.4-0.2,0.7-0.2&#10;&#9;&#9;&#9;&#9;c0.2,0,0.5,0.1,1,0.3c0.5,0.2,0.8,0.3,1.1,0.3c0.1,0,0.2,0,0.3-0.1c-0.1-0.1-0.1-0.2-0.1-0.3c0-0.3,0.2-0.5,0.5-0.5&#10;&#9;&#9;&#9;&#9;c0.5,0,0.8,0.4,0.8,1.3c0,0.7-0.2,1.4-0.6,2c-0.2,0.3-0.4,0.6-0.6,0.8c-0.5,0.6-0.9,1.2-1,1.7c-0.2,0.5-0.3,1.2-0.3,1.9&#10;&#9;&#9;&#9;&#9;c0,0,0,0.1,0,0.2c0,0.1,0,0.2,0,0.2c0,0.3,0,0.5,0,0.7c0,0.7-0.2,1.1-0.6,1.1c-0.3,0-0.5-0.2-0.6-0.6c0-0.1,0-0.4,0-1&#10;&#9;&#9;&#9;&#9;c0-1.2,0.2-2.2,0.7-3.1c0.3-0.6,0.7-1.2,1.3-1.9c0.3-0.4,0.6-0.7,0.7-0.9c0.1-0.2,0.2-0.5,0.3-0.9c-0.3,0.3-0.6,0.4-0.9,0.4&#10;&#9;&#9;&#9;&#9;c-0.1,0-0.3,0-0.4-0.1c-0.1,0-0.3-0.1-0.6-0.2c-0.4-0.2-0.8-0.3-1-0.3c-0.3,0-0.6,0.1-0.8,0.3c-0.2,0.2-0.3,0.5-0.3,0.8&#10;&#9;&#9;&#9;&#9;c0,0.1,0,0.3,0,0.5c0,0.3,0,0.4,0,0.6c0,0.5-0.2,0.7-0.5,0.7c-0.3,0-0.5-0.2-0.5-0.6c0-0.2,0-0.4,0.1-0.8&#10;&#9;&#9;&#9;&#9;c0.1-0.4,0.1-0.7,0.1-1.1c0-0.2,0-0.4-0.1-0.7c0-0.3-0.1-0.5-0.1-0.7c0-0.3,0.1-0.5,0.4-0.5C859.8,83,859.9,83.2,859.9,83.6z" style="fill: rgb(196, 22, 28);"/>
		</g>
		<path d="M 942 201 L 946.2000122070312 194.3000030517578 L 942 187.60000610351562 L 937.7000122070312 194.3000030517578 Z" class="st2" style="fill: rgb(196, 22, 28);"/>
		<g>
			<path class="st2" d="M943.7,213.2c0,0,0-0.1,0-0.1c0-0.1,0-0.2,0-0.2c-0.2,0.3-0.4,0.5-0.5,0.7c-0.2,0.1-0.4,0.2-0.7,0.2&#10;&#9;&#9;&#9;&#9;c-0.2,0-0.5-0.1-1-0.3c-0.5-0.2-0.8-0.3-1.1-0.3c-0.1,0-0.2,0-0.3,0.1c0.1,0.1,0.1,0.2,0.1,0.3c0,0.3-0.2,0.5-0.5,0.5&#10;&#9;&#9;&#9;&#9;c-0.5,0-0.8-0.4-0.8-1.3c0-0.7,0.2-1.4,0.6-2c0.2-0.3,0.4-0.6,0.6-0.8c0.5-0.6,0.9-1.2,1-1.7c0.2-0.5,0.3-1.2,0.3-1.9&#10;&#9;&#9;&#9;&#9;c0,0,0-0.1,0-0.2c0-0.1,0-0.2,0-0.2c0-0.3,0-0.5,0-0.7c0-0.7,0.2-1.1,0.6-1.1c0.3,0,0.5,0.2,0.6,0.6c0,0.1,0,0.4,0,1&#10;&#9;&#9;&#9;&#9;c0,1.2-0.2,2.2-0.7,3.1c-0.3,0.6-0.7,1.2-1.3,1.9c-0.3,0.4-0.6,0.7-0.7,0.9c-0.1,0.2-0.2,0.5-0.3,0.9c0.3-0.3,0.6-0.4,0.9-0.4&#10;&#9;&#9;&#9;&#9;c0.1,0,0.3,0,0.4,0.1c0.1,0,0.3,0.1,0.6,0.2c0.4,0.2,0.8,0.3,1,0.3c0.3,0,0.6-0.1,0.8-0.3c0.2-0.2,0.3-0.5,0.3-0.8&#10;&#9;&#9;&#9;&#9;c0-0.1,0-0.3,0-0.5c0-0.3,0-0.4,0-0.6c0-0.5,0.2-0.7,0.5-0.7c0.3,0,0.5,0.2,0.5,0.6c0,0.2,0,0.4-0.1,0.8&#10;&#9;&#9;&#9;&#9;c-0.1,0.4-0.1,0.7-0.1,1.1c0,0.2,0,0.4,0.1,0.7c0,0.3,0.1,0.5,0.1,0.7c0,0.3-0.1,0.5-0.4,0.5&#10;&#9;&#9;&#9;&#9;C943.8,213.8,943.7,213.6,943.7,213.2z" style="fill: rgb(196, 22, 28);"/>
		</g>
		<path d="M 901.7999877929688 112.69999694824219 L 891.7999877929688 128.1999969482422 L 901.7999877929688 143.8000030517578 L 911.7999877929688 128.1999969482422 Z" class="st2" style="fill: rgb(196, 22, 28);"/>
		<path d="M 881.7000122070312 132.6999969482422 L 871.7000122070312 148.1999969482422 L 881.7000122070312 163.8000030517578 L 891.7000122070312 148.1999969482422 Z" class="st2" style="fill: rgb(196, 22, 28);"/>
		<path d="M 881.7000122070312 92.69999694824219 L 871.7000122070312 108.19999694824219 L 881.7000122070312 123.80000305175781 L 891.7000122070312 108.19999694824219 Z" class="st2" style="fill: rgb(196, 22, 28);"/>
		<path d="M 881.7000122070312 172.6999969482422 L 871.7000122070312 188.1999969482422 L 881.7000122070312 203.8000030517578 L 891.7000122070312 188.1999969482422 Z" class="st2" style="fill: rgb(196, 22, 28);"/>
		<path d="M 921.7000122070312 132.6999969482422 L 911.7000122070312 148.1999969482422 L 921.7000122070312 163.8000030517578 L 931.7000122070312 148.1999969482422 Z" class="st2" style="fill: rgb(196, 22, 28);"/>
		<path d="M 921.7000122070312 92.69999694824219 L 911.7000122070312 108.19999694824219 L 921.7000122070312 123.80000305175781 L 931.7000122070312 108.19999694824219 Z" class="st2" style="fill: rgb(196, 22, 28);"/>
		<path d="M 921.7000122070312 172.6999969482422 L 911.7000122070312 188.1999969482422 L 921.7000122070312 203.8000030517578 L 931.7000122070312 188.1999969482422 Z" class="st2" style="fill: rgb(196, 22, 28);"/>
	</g></svg>