<?xml version="1.0" encoding="utf-8"?>
<svg viewBox="986.0000610351562 78.9000015258789 100.99993896484375 140" width="100.99993896484375" height="140" xmlns="http://www.w3.org/2000/svg"><g transform="matrix(0.9999999999999999, 0, 0, 0.9999999999999999, 0, 0)">
		<path class="st1" d="M1084,78.9c0,0-29.2,0.8-47.5,0.8S989,78.9,989,78.9c-1.7,0-3,1.3-3,3v132.9c0,1.7,1.4,3.1,3,3.1&#10;&#9;&#9;&#9;c0,0,29.2,1,47.5,1s47.5-1,47.5-1c1.7-0.1,3-1.5,3-3.1V81.9C1087,80.2,1085.7,78.9,1084,78.9z" style="fill: rgb(255, 255, 255);"/>
		<path d="M 996.2000122070312 95.80000305175781 L 991.9000244140625 102.5 L 996.2000122070312 109.19999694824219 L 1000.5 102.5 Z" class="st2" style="fill: rgb(196, 22, 28);"/>
		<g>
			<path class="st2" d="M994,88.2c0.3-0.3,0.6-0.5,1.1-0.6c-0.9-0.4-1.3-1-1.3-2c0-0.7,0.2-1.3,0.7-1.8c0.5-0.5,1.1-0.7,1.8-0.7&#10;&#9;&#9;&#9;&#9;c0.7,0,1.3,0.2,1.7,0.7c0.4,0.5,0.7,1,0.7,1.8c0,1-0.4,1.7-1.3,2.1c1.1,0.4,1.7,1.2,1.7,2.5c0,0.9-0.3,1.6-0.8,2.2&#10;&#9;&#9;&#9;&#9;c-0.5,0.6-1.3,0.8-2.1,0.8c-0.8,0-1.5-0.3-2.1-0.8c-0.6-0.5-0.8-1.2-0.8-2.1C993.3,89.4,993.5,88.8,994,88.2z M996.2,88.1&#10;&#9;&#9;&#9;&#9;c-0.5,0-1,0.2-1.3,0.5c-0.4,0.4-0.5,0.8-0.5,1.4c0,0.6,0.2,1.1,0.5,1.5c0.3,0.4,0.8,0.6,1.3,0.6c0.5,0,1-0.2,1.3-0.6&#10;&#9;&#9;&#9;&#9;c0.3-0.4,0.5-0.9,0.5-1.4c0-0.6-0.2-1.1-0.5-1.4C997.2,88.3,996.8,88.1,996.2,88.1z M996.3,84c-0.4,0-0.7,0.1-1,0.4&#10;&#9;&#9;&#9;&#9;c-0.3,0.3-0.4,0.6-0.4,1.1c0,0.4,0.1,0.8,0.4,1.1c0.3,0.3,0.6,0.4,1,0.4c0.4,0,0.7-0.1,1-0.4c0.3-0.3,0.4-0.6,0.4-1.1&#10;&#9;&#9;&#9;&#9;c0-0.4-0.1-0.8-0.4-1.1C997,84.1,996.7,84,996.3,84z" style="fill: rgb(196, 22, 28);"/>
		</g>
		<path d="M 1076.5999755859375 201 L 1080.800048828125 194.3000030517578 L 1076.5999755859375 187.60000610351562 L 1072.300048828125 194.3000030517578 Z" class="st2" style="fill: rgb(196, 22, 28);"/>
		<g>
			<path class="st2" d="M1078.8,208.6c-0.3,0.3-0.6,0.5-1.1,0.6c0.9,0.4,1.3,1,1.3,2c0,0.7-0.2,1.3-0.7,1.8&#10;&#9;&#9;&#9;&#9;c-0.5,0.5-1.1,0.7-1.8,0.7c-0.7,0-1.3-0.2-1.7-0.7c-0.4-0.5-0.7-1-0.7-1.8c0-1,0.4-1.7,1.3-2.1c-1.1-0.4-1.7-1.2-1.7-2.5&#10;&#9;&#9;&#9;&#9;c0-0.9,0.3-1.6,0.8-2.2s1.3-0.8,2.1-0.8c0.8,0,1.5,0.3,2.1,0.8c0.6,0.5,0.8,1.2,0.8,2.1C1079.5,207.4,1079.2,208,1078.8,208.6z&#10;&#9;&#9;&#9;&#9; M1076.6,208.7c0.5,0,1-0.2,1.3-0.5c0.4-0.4,0.5-0.8,0.5-1.4c0-0.6-0.2-1.1-0.5-1.5c-0.3-0.4-0.8-0.6-1.3-0.6&#10;&#9;&#9;&#9;&#9;c-0.5,0-1,0.2-1.3,0.6c-0.3,0.4-0.5,0.9-0.5,1.4c0,0.6,0.2,1.1,0.5,1.4C1075.5,208.5,1076,208.7,1076.6,208.7z M1076.5,212.8&#10;&#9;&#9;&#9;&#9;c0.4,0,0.7-0.1,1-0.4c0.3-0.3,0.4-0.6,0.4-1.1c0-0.4-0.1-0.8-0.4-1.1c-0.3-0.3-0.6-0.4-1-0.4c-0.4,0-0.7,0.1-1,0.4&#10;&#9;&#9;&#9;&#9;c-0.3,0.3-0.4,0.6-0.4,1.1c0,0.4,0.1,0.8,0.4,1.1C1075.8,212.7,1076.1,212.8,1076.5,212.8z" style="fill: rgb(196, 22, 28);"/>
		</g>
		<path d="M 1036.4000244140625 152.6999969482422 L 1026.4000244140625 168.1999969482422 L 1036.4000244140625 183.8000030517578 L 1046.4000244140625 168.1999969482422 Z" class="st2" style="fill: rgb(196, 22, 28);"/>
		<path d="M 1036.5 112.69999694824219 L 1026.4000244140625 128.1999969482422 L 1036.5 143.8000030517578 L 1046.5 128.1999969482422 Z" class="st2" style="fill: rgb(196, 22, 28);"/>
		<path d="M 1016.4000244140625 132.6999969482422 L 1006.4000244140625 148.1999969482422 L 1016.4000244140625 163.8000030517578 L 1026.4000244140625 148.1999969482422 Z" class="st2" style="fill: rgb(196, 22, 28);"/>
		<path d="M 1016.4000244140625 92.69999694824219 L 1006.4000244140625 108.19999694824219 L 1016.4000244140625 123.80000305175781 L 1026.4000244140625 108.19999694824219 Z" class="st2" style="fill: rgb(196, 22, 28);"/>
		<path d="M 1016.4000244140625 172.6999969482422 L 1006.4000244140625 188.1999969482422 L 1016.4000244140625 203.8000030517578 L 1026.4000244140625 188.1999969482422 Z" class="st2" style="fill: rgb(196, 22, 28);"/>
		<path d="M 1056.4000244140625 132.6999969482422 L 1046.4000244140625 148.1999969482422 L 1056.4000244140625 163.8000030517578 L 1066.4000244140625 148.1999969482422 Z" class="st2" style="fill: rgb(196, 22, 28);"/>
		<path d="M 1056.4000244140625 92.69999694824219 L 1046.4000244140625 108.19999694824219 L 1056.4000244140625 123.80000305175781 L 1066.4000244140625 108.19999694824219 Z" class="st2" style="fill: rgb(196, 22, 28);"/>
		<path d="M 1056.4000244140625 172.6999969482422 L 1046.4000244140625 188.1999969482422 L 1056.4000244140625 203.8000030517578 L 1066.4000244140625 188.1999969482422 Z" class="st2" style="fill: rgb(196, 22, 28);"/>
	</g></svg>