<?xml version="1.0" encoding="utf-8"?>
<svg viewBox="1120.60009765625 78.9000015258789 100.9998779296875 140" width="100.9998779296875" height="140" xmlns="http://www.w3.org/2000/svg"><g transform="matrix(0.9999999999999999, 0, 0, 0.9999999999999999, 0, 0)">
		<path class="st1" d="M1218.6,78.9c0,0-29.2,0.8-47.5,0.8s-47.5-0.8-47.5-0.8c-1.7,0-3,1.3-3,3v132.9c0,1.7,1.4,3.1,3,3.1&#10;&#9;&#9;&#9;c0,0,29.2,1,47.5,1s47.5-1,47.5-1c1.7-0.1,3-1.5,3-3.1V81.9C1221.6,80.2,1220.3,78.9,1218.6,78.9z" style="fill: rgb(255, 255, 255);"/>
		<path d="M 1130.800048828125 95.80000305175781 L 1126.5 102.5 L 1130.800048828125 109.19999694824219 L 1135.0999755859375 102.5 Z" class="st2" style="fill: rgb(196, 22, 28);"/>
		<g>
			<path class="st2" d="M1130.5,92.1c0.6,0,1.2-0.3,1.5-1c0.4-0.7,0.6-1.6,0.7-2.7c-0.4,0.5-0.7,0.8-1.1,1c-0.3,0.2-0.7,0.3-1.2,0.3&#10;&#9;&#9;&#9;&#9;c-0.8,0-1.4-0.3-1.9-0.9c-0.5-0.6-0.7-1.4-0.7-2.3c0-1,0.3-1.8,0.8-2.5c0.5-0.7,1.2-1,2.1-1c0.5,0,1,0.1,1.4,0.4&#10;&#9;&#9;&#9;&#9;c0.4,0.3,0.8,0.7,1,1.2c0.4,0.9,0.6,2.1,0.6,3.4c0,1.5-0.3,2.7-0.9,3.7c-0.6,0.9-1.4,1.4-2.4,1.4c-0.6,0-1.2-0.2-1.6-0.6&#10;&#9;&#9;&#9;&#9;c-0.4-0.4-0.6-0.9-0.6-1.5c0-0.7,0.2-1,0.7-1c0.2,0,0.4,0.1,0.5,0.2c0.1,0.1,0.2,0.3,0.2,0.5c0,0.2-0.1,0.5-0.3,0.6&#10;&#9;&#9;&#9;&#9;C1129.5,91.9,1129.9,92.1,1130.5,92.1z M1130.6,88.7c0.5,0,1-0.2,1.3-0.6c0.3-0.4,0.5-0.9,0.5-1.5c0-0.7-0.2-1.3-0.5-1.7&#10;&#9;&#9;&#9;&#9;s-0.8-0.7-1.3-0.7c-0.5,0-0.9,0.2-1.3,0.7c-0.3,0.4-0.5,1-0.5,1.7c0,0.7,0.2,1.2,0.5,1.6C1129.7,88.5,1130.1,88.7,1130.6,88.7z" style="fill: rgb(196, 22, 28);"/>
		</g>
		<path d="M 1211.0999755859375 201 L 1215.4000244140625 194.3000030517578 L 1211.0999755859375 187.60000610351562 L 1206.9000244140625 194.3000030517578 Z" class="st2" style="fill: rgb(196, 22, 28);"/>
		<g>
			<path class="st2" d="M1211.5,204.7c-0.6,0-1.2,0.3-1.5,1c-0.4,0.7-0.6,1.6-0.7,2.7c0.4-0.5,0.7-0.8,1.1-1&#10;&#9;&#9;&#9;&#9;c0.3-0.2,0.7-0.3,1.2-0.3c0.8,0,1.4,0.3,1.9,0.9c0.5,0.6,0.7,1.4,0.7,2.3c0,1-0.3,1.8-0.8,2.5s-1.2,1-2.1,1c-0.5,0-1-0.1-1.4-0.4&#10;&#9;&#9;&#9;&#9;c-0.4-0.3-0.8-0.7-1-1.2c-0.4-0.9-0.6-2.1-0.6-3.4c0-1.5,0.3-2.7,0.9-3.7c0.6-0.9,1.4-1.4,2.4-1.4c0.6,0,1.2,0.2,1.6,0.6&#10;&#9;&#9;&#9;&#9;c0.4,0.4,0.6,0.9,0.6,1.5c0,0.7-0.2,1-0.7,1c-0.2,0-0.4-0.1-0.5-0.2c-0.1-0.1-0.2-0.3-0.2-0.5c0-0.2,0.1-0.5,0.3-0.6&#10;&#9;&#9;&#9;&#9;C1212.4,205,1212,204.7,1211.5,204.7z M1211.3,208.1c-0.5,0-1,0.2-1.3,0.6c-0.3,0.4-0.5,0.9-0.5,1.5c0,0.7,0.2,1.3,0.5,1.7&#10;&#9;&#9;&#9;&#9;c0.3,0.5,0.8,0.7,1.3,0.7c0.5,0,0.9-0.2,1.3-0.7c0.3-0.4,0.5-1,0.5-1.7c0-0.7-0.2-1.2-0.5-1.6&#10;&#9;&#9;&#9;&#9;C1212.3,208.4,1211.9,208.1,1211.3,208.1z" style="fill: rgb(196, 22, 28);"/>
		</g>
		<path d="M 1148.0999755859375 91.19999694824219 L 1139.0999755859375 105.19999694824219 L 1148.0999755859375 119.19999694824219 L 1157.0999755859375 105.19999694824219 Z" class="st2" style="fill: rgb(196, 22, 28);"/>
		<path d="M 1148.0999755859375 121.19999694824219 L 1139.0999755859375 135.1999969482422 L 1148.0999755859375 149.1999969482422 L 1157.0999755859375 135.1999969482422 Z" class="st2" style="fill: rgb(196, 22, 28);"/>
		<path d="M 1148.0999755859375 151.1999969482422 L 1139.0999755859375 165.1999969482422 L 1148.0999755859375 179.1999969482422 L 1157.0999755859375 165.1999969482422 Z" class="st2" style="fill: rgb(196, 22, 28);"/>
		<path d="M 1148.0999755859375 181.1999969482422 L 1139.0999755859375 195.1999969482422 L 1148.0999755859375 209.1999969482422 L 1157.0999755859375 195.1999969482422 Z" class="st2" style="fill: rgb(196, 22, 28);"/>
		<path d="M 1193.0999755859375 91.19999694824219 L 1184.0999755859375 105.19999694824219 L 1193.0999755859375 119.19999694824219 L 1202.0999755859375 105.19999694824219 Z" class="st2" style="fill: rgb(196, 22, 28);"/>
		<path d="M 1193.0999755859375 121.19999694824219 L 1184.0999755859375 135.1999969482422 L 1193.0999755859375 149.1999969482422 L 1202.0999755859375 135.1999969482422 Z" class="st2" style="fill: rgb(196, 22, 28);"/>
		<path d="M 1193.0999755859375 151.1999969482422 L 1184.0999755859375 165.1999969482422 L 1193.0999755859375 179.1999969482422 L 1202.0999755859375 165.1999969482422 Z" class="st2" style="fill: rgb(196, 22, 28);"/>
		<path d="M 1193.0999755859375 181.1999969482422 L 1184.0999755859375 195.1999969482422 L 1193.0999755859375 209.1999969482422 L 1202.0999755859375 195.1999969482422 Z" class="st2" style="fill: rgb(196, 22, 28);"/>
		<path d="M 1171 105.19999694824219 L 1162 119.19999694824219 L 1171 133.1999969482422 L 1180 119.19999694824219 Z" class="st2" style="fill: rgb(196, 22, 28);"/>
	</g></svg>