<?xml version="1.0" encoding="utf-8"?>
<svg viewBox="43.79999923706055 78.9000015258789 101.0999755859375 140" width="101.0999755859375" height="140" xmlns="http://www.w3.org/2000/svg"><g transform="matrix(0.9999999999999999, 0, 0, 0.9999999999999999, 0, 0)">
		<path class="st1" d="M141.8,78.9c0,0-29.2,0.8-47.5,0.8c-18.3,0-47.5-0.8-47.5-0.8c-1.7,0-3,1.3-3,3v132.9c0,1.7,1.4,3.1,3,3.1&#10;&#9;&#9;&#9;c0,0,29.2,1,47.5,1c18.3,0,47.5-1,47.5-1c1.7-0.1,3-1.5,3-3.1V81.9C144.9,80.2,143.5,78.9,141.8,78.9z" style="fill: rgb(255, 255, 255);"/>
		<path d="M 94.30000305175781 126 L 80 148.1999969482422 L 94.30000305175781 170.5 L 108.5999984741211 148.1999969482422 Z" class="st2" style="fill: rgb(196, 22, 28);"/>
		<path d="M 54 95.80000305175781 L 49.79999923706055 102.5 L 54 109.19999694824219 L 58.29999923706055 102.5 Z" class="st2" style="fill: rgb(196, 22, 28);"/>
		<g>
			<path class="st2" d="M51.7,90l1.7-6.1c0.1-0.3,0.2-0.5,0.2-0.6c0.1-0.2,0.3-0.2,0.5-0.2c0.3,0,0.5,0.1,0.6,0.2&#10;&#9;&#9;&#9;&#9;c0.1,0.1,0.2,0.5,0.4,1.1l1.7,6.6c0.1,0.4,0.2,0.7,0.3,0.8c0.1,0.1,0.2,0.2,0.3,0.2c0,0,0.1,0,0.3,0c0,0,0.1,0,0.1,0&#10;&#9;&#9;&#9;&#9;c0,0,0.1,0,0.1,0c0.3,0,0.5,0.2,0.5,0.5c0,0.4-0.2,0.6-0.5,0.6c0,0-0.3,0-0.7-0.1c-0.2,0-0.4-0.1-0.6-0.1c-0.2,0-0.4,0-0.7,0.1&#10;&#9;&#9;&#9;&#9;c-0.3,0.1-0.5,0.1-0.6,0.1c-0.1,0-0.3-0.1-0.4-0.2c-0.1-0.1-0.2-0.2-0.2-0.4c0-0.3,0.2-0.5,0.5-0.5c0.1,0,0.1,0,0.1,0&#10;&#9;&#9;&#9;&#9;c0,0,0.1,0,0.1,0c0,0,0.1,0,0.1,0c0.2,0,0.3-0.2,0.3-0.5c0-0.2,0-0.4-0.1-0.6l-0.3-1.1c0-0.2-0.1-0.2-0.1-0.3c0,0-0.1,0-0.2,0&#10;&#9;&#9;&#9;&#9;h-1.8c-0.2,0-0.3,0.2-0.4,0.5l-0.3,1c-0.1,0.3-0.1,0.5-0.1,0.6c0,0.2,0.1,0.3,0.3,0.3c0.1,0,0.1,0,0.1,0c0,0,0.1,0,0.1,0&#10;&#9;&#9;&#9;&#9;c0,0,0.1,0,0.1,0c0.3,0,0.5,0.2,0.5,0.5c0,0.4-0.2,0.6-0.5,0.6c-0.1,0-0.3,0-0.6-0.1c-0.3-0.1-0.5-0.1-0.6-0.1&#10;&#9;&#9;&#9;&#9;c-0.2,0-0.5,0-0.8,0.1c-0.3,0.1-0.5,0.1-0.6,0.1c-0.3,0-0.5-0.2-0.5-0.5c0-0.4,0.1-0.5,0.5-0.5c0.1,0,0.1,0,0.2,0&#10;&#9;&#9;&#9;&#9;c0.1,0,0.2,0,0.2,0c0.2,0,0.3-0.1,0.4-0.4C51.4,91.2,51.5,90.7,51.7,90z M55,88.1l-0.8-3.6l-0.9,3.6c0,0.1,0,0.1,0,0.2&#10;&#9;&#9;&#9;&#9;c0,0.1,0.1,0.2,0.3,0.2h1.3c0.2,0,0.2-0.1,0.2-0.2C55,88.3,55,88.2,55,88.1z" style="fill: rgb(196, 22, 28);"/>
		</g>
		<path d="M 134.39999389648438 201 L 138.6999969482422 194.3000030517578 L 134.39999389648438 187.60000610351562 L 130.10000610351562 194.3000030517578 Z" class="st2" style="fill: rgb(196, 22, 28);"/>
		<g>
			<path class="st2" d="M136.7,206.9L135,213c-0.1,0.3-0.2,0.5-0.2,0.6c-0.1,0.2-0.3,0.2-0.5,0.2c-0.3,0-0.5-0.1-0.6-0.2&#10;&#9;&#9;&#9;&#9;c-0.1-0.1-0.2-0.5-0.4-1.1l-1.7-6.6c-0.1-0.4-0.2-0.7-0.3-0.8c-0.1-0.1-0.2-0.2-0.3-0.2c0,0-0.1,0-0.3,0c0,0-0.1,0-0.1,0&#10;&#9;&#9;&#9;&#9;c0,0-0.1,0-0.1,0c-0.3,0-0.5-0.2-0.5-0.5c0-0.4,0.2-0.6,0.5-0.6c0,0,0.3,0,0.7,0.1c0.2,0,0.4,0.1,0.6,0.1c0.2,0,0.4,0,0.7-0.1&#10;&#9;&#9;&#9;&#9;c0.3-0.1,0.5-0.1,0.6-0.1c0.1,0,0.3,0.1,0.4,0.2c0.1,0.1,0.2,0.2,0.2,0.4c0,0.3-0.2,0.5-0.5,0.5c-0.1,0-0.1,0-0.1,0&#10;&#9;&#9;&#9;&#9;c0,0-0.1,0-0.1,0c0,0-0.1,0-0.1,0c-0.2,0-0.3,0.2-0.3,0.5c0,0.2,0,0.4,0.1,0.6l0.3,1.1c0,0.2,0.1,0.2,0.1,0.3c0,0,0.1,0,0.2,0&#10;&#9;&#9;&#9;&#9;h1.8c0.2,0,0.3-0.2,0.4-0.5l0.3-1c0.1-0.3,0.1-0.5,0.1-0.6c0-0.2-0.1-0.3-0.3-0.3c-0.1,0-0.1,0-0.1,0c0,0-0.1,0-0.1,0&#10;&#9;&#9;&#9;&#9;c0,0-0.1,0-0.1,0c-0.3,0-0.5-0.2-0.5-0.5c0-0.4,0.2-0.6,0.5-0.6c0.1,0,0.3,0,0.6,0.1c0.3,0.1,0.5,0.1,0.6,0.1&#10;&#9;&#9;&#9;&#9;c0.2,0,0.5,0,0.8-0.1c0.3-0.1,0.5-0.1,0.6-0.1c0.3,0,0.5,0.2,0.5,0.5c0,0.4-0.1,0.5-0.5,0.5c-0.1,0-0.1,0-0.2,0&#10;&#9;&#9;&#9;&#9;c-0.1,0-0.2,0-0.2,0c-0.2,0-0.3,0.1-0.4,0.4C137.1,205.6,136.9,206.1,136.7,206.9z M133.5,208.7l0.8,3.6l0.9-3.6&#10;&#9;&#9;&#9;&#9;c0-0.1,0-0.1,0-0.2c0-0.1-0.1-0.2-0.3-0.2h-1.3c-0.2,0-0.2,0.1-0.2,0.2C133.4,208.5,133.4,208.6,133.5,208.7z" style="fill: rgb(196, 22, 28);"/>
		</g>
	</g></svg>